<svg width="35" height="35" viewBox="0 0 35 35" fill="none" xmlns="http://www.w3.org/2000/svg">
<path d="M18.4479 20.4167C17.2521 23.8146 14.0146 26.25 10.2083 26.25C5.38125 26.25 1.45834 22.3271 1.45834 17.5C1.45834 12.6729 5.38125 8.75 10.2083 8.75C14.0146 8.75 17.2521 11.1854 18.4479 14.5833H24.7917V8.75H30.625V14.5833H33.5417V20.4167H18.4479ZM10.2083 14.5833C8.60417 14.5833 7.29167 15.8958 7.29167 17.5C7.29167 19.1042 8.60417 20.4167 10.2083 20.4167C11.8125 20.4167 13.125 19.1042 13.125 17.5C13.125 15.8958 11.8125 14.5833 10.2083 14.5833Z" fill="#FEFDFD"/>
</svg>
